Coordinates
version=1
nRows=27
nColumns=38
inDegrees=no

Units are S.I. units (second, meters, Newtons, ...)
If the header above contains a line with 'inDegrees', this indicates whether rotational values are in degrees (yes) or radians (no).

endheader
time	pelvis_tilt	pelvis_list	pelvis_rotation	pelvis_tx	pelvis_ty	pelvis_tz	hip_flexion_r	hip_adduction_r	hip_rotation_r	knee_angle_r	ankle_angle_r	subtalar_angle_r	mtp_angle_r	hip_flexion_l	hip_adduction_l	hip_rotation_l	knee_angle_l	ankle_angle_l	subtalar_angle_l	mtp_angle_l	lumbar_extension	lumbar_bending	lumbar_rotation	arm_flex_r	arm_add_r	arm_rot_r	elbow_flex_r	pro_sup_r	wrist_flex_r	wrist_dev_r	arm_flex_l	arm_add_l	arm_rot_l	elbow_flex_l	pro_sup_l	wrist_flex_l	wrist_dev_l
0	-2.89719	1.27281	-1.61123	0.917719	-0.566578	1.11041	-0.194298	0.0321646	-0.166335	0.427611	-0.0880356	0	0	0.159039	-0.0396586	0.0184456	0.656758	-0.20584	0	0	-0.513431	0.0206734	0.0157017	0.70639	-0.35365	0.756628	1.06324	0.500951	0	0	0.274934	-0.600371	-0.00512686	1.18447	0.722773	0	0
0.01	-2.91029	1.27797	-1.59671	0.915853	-0.55792	1.10869	-0.19378	0.0358192	-0.17197	0.438109	-0.0803605	0	0	0.167335	-0.0414047	0.0334243	0.610112	-0.200512	0	0	-0.509882	0.0276033	0.015067	0.710746	-0.354765	0.758682	1.06415	0.49858	0	0	0.274125	-0.599193	-0.00671593	1.18585	0.723927	0	0
0.02	-2.91764	1.28346	-1.59119	0.91449	-0.54852	1.10741	-0.195499	0.0374564	-0.172702	0.443393	-0.0712853	0	0	0.170074	-0.0426776	0.0428451	0.556318	-0.193822	0	0	-0.505421	0.0301175	0.017014	0.713135	-0.355283	0.760261	1.06393	0.496798	0	0	0.272372	-0.597359	-0.00962533	1.18683	0.723178	0	0
0.03	-2.92307	1.28831	-1.58904	0.913196	-0.538628	1.10631	-0.198893	0.0382993	-0.171976	0.447274	-0.064145	0	0	0.171339	-0.045188	0.0426699	0.506263	-0.184477	0	0	-0.501157	0.0311791	0.0201086	0.714299	-0.356	0.76152	1.06405	0.496047	0	0	0.269973	-0.595992	-0.0116518	1.1878	0.722673	0	0
0.04	-2.92833	1.29293	-1.58694	0.911743	-0.52844	1.10522	-0.20333	0.0389364	-0.172268	0.450075	-0.0586101	0	0	0.172635	-0.0483747	0.0372801	0.460703	-0.173526	0	0	-0.496754	0.0323191	0.0230695	0.714424	-0.35697	0.762434	1.06491	0.495475	0	0	0.267099	-0.59483	-0.0130458	1.18865	0.723365	0	0
0.05	-2.93396	1.29799	-1.58367	0.910078	-0.518061	1.10399	-0.207826	0.0398653	-0.173094	0.452263	-0.0526992	0	0	0.175411	-0.0516752	0.0298075	0.419543	-0.162277	0	0	-0.491264	0.0338669	0.0255553	0.713883	-0.358309	0.763725	1.06586	0.494827	0	0	0.264348	-0.593484	-0.0138123	1.18887	0.724767	0	0
0.06	-2.94082	1.30371	-1.57796	0.908181	-0.507545	1.10257	-0.212193	0.0413924	-0.174629	0.453742	-0.0467404	0	0	0.180863	-0.0556143	0.0207055	0.38423	-0.151864	0	0	-0.484641	0.0361044	0.0272428	0.712852	-0.35999	0.765357	1.06695	0.493945	0	0	0.261608	-0.592151	-0.0142401	1.18885	0.725942	0	0
0.07	-2.9477	1.31047	-1.57121	0.906062	-0.496893	1.10093	-0.215673	0.0430857	-0.176154	0.455192	-0.0404665	0	0	0.18846	-0.0593061	0.0131024	0.352942	-0.142259	0	0	-0.476622	0.038593	0.0280621	0.711296	-0.361905	0.767184	1.06828	0.492481	0	0	0.258616	-0.590898	-0.0146033	1.18889	0.725878	0	0
0.08	-2.95159	1.31848	-1.56659	0.903722	-0.48607	1.09914	-0.217767	0.0438619	-0.17794	0.457276	-0.033177	0	0	0.197164	-0.0617497	0.00796448	0.323221	-0.13441	0	0	-0.46694	0.0405668	0.0280282	0.708974	-0.363896	0.769008	1.06955	0.490066	0	0	0.255331	-0.589639	-0.0149276	1.18872	0.724258	0	0
0.09	-2.95157	1.32611	-1.56521	0.90122	-0.475143	1.09735	-0.220289	0.0433018	-0.180892	0.45997	-0.026029	0	0	0.204866	-0.0627069	0.00413864	0.295755	-0.127894	0	0	-0.457504	0.0417521	0.0270665	0.706447	-0.365699	0.770709	1.07066	0.487886	0	0	0.25253	-0.588774	-0.014403	1.18805	0.723151	0	0
0.1	-2.94866	1.33314	-1.56677	0.898654	-0.46401	1.09563	-0.223998	0.0416614	-0.185388	0.461822	-0.01967	0	0	0.210744	-0.0622212	0.000933639	0.271436	-0.12106	0	0	-0.448613	0.0419499	0.0257424	0.703635	-0.367178	0.772358	1.07167	0.485836	0	0	0.249501	-0.588299	-0.0140178	1.1876	0.722627	0	0
0.11	-2.9439	1.33891	-1.57061	0.896136	-0.452717	1.09402	-0.229507	0.0396918	-0.189409	0.462456	-0.0147862	0	0	0.214857	-0.0607006	-0.00342022	0.252692	-0.113745	0	0	-0.441256	0.0414271	0.0242561	0.701113	-0.36807	0.774173	1.0726	0.484138	0	0	0.246139	-0.588503	-0.0140734	1.18767	0.723518	0	0
0.12	-2.93694	1.34431	-1.57748	0.893738	-0.441229	1.0924	-0.235077	0.0371909	-0.192233	0.464087	-0.00914618	0	0	0.217917	-0.0584146	-0.0076527	0.238758	-0.105804	0	0	-0.433913	0.0396606	0.0234556	0.698445	-0.368568	0.77627	1.07285	0.481728	0	0	0.242678	-0.589059	-0.0143246	1.18801	0.72396	0	0
0.13	-2.92872	1.34849	-1.58642	0.89146	-0.429691	1.09083	-0.241497	0.0343027	-0.194246	0.466595	-0.00431559	0	0	0.219645	-0.0562579	-0.0127849	0.230743	-0.0984199	0	0	-0.428155	0.0374468	0.0232337	0.696282	-0.368796	0.778292	1.07315	0.479594	0	0	0.239348	-0.589436	-0.0153586	1.18846	0.723237	0	0
0.14	-2.92044	1.35187	-1.59696	0.889374	-0.418087	1.08932	-0.248369	0.0311651	-0.195159	0.469324	-0.00044908	0	0	0.220887	-0.0545356	-0.0196773	0.22887	-0.0920487	0	0	-0.423932	0.0346561	0.0241787	0.694635	-0.368872	0.780211	1.07372	0.477578	0	0	0.236162	-0.58996	-0.0168719	1.1893	0.722744	0	0
0.15	-2.91077	1.35471	-1.61012	0.887381	-0.406349	1.0878	-0.255406	0.0272731	-0.195696	0.472713	0.00292202	0	0	0.22194	-0.0526124	-0.0276911	0.232641	-0.0867038	0	0	-0.420266	0.0310384	0.0264219	0.692802	-0.368993	0.781693	1.07418	0.475682	0	0	0.233643	-0.590545	-0.0176003	1.18984	0.72275	0	0
0.16	-2.89925	1.35724	-1.62614	0.88545	-0.394481	1.08628	-0.262208	0.0225616	-0.196108	0.476923	0.00579063	0	0	0.222447	-0.0507044	-0.0351361	0.241853	-0.0817374	0	0	-0.416906	0.0266905	0.0296216	0.690658	-0.368987	0.782411	1.07458	0.474102	0	0	0.23143	-0.591126	-0.0179346	1.19025	0.72267	0	0
0.17	-2.88696	1.35938	-1.64377	0.883578	-0.382521	1.08477	-0.268813	0.0172793	-0.196246	0.481889	0.00820857	0	0	0.221702	-0.0489817	-0.0411659	0.254303	-0.0776681	0	0	-0.414024	0.0217306	0.0337251	0.688256	-0.368814	0.782216	1.07495	0.473082	0	0	0.229273	-0.591556	-0.018758	1.19101	0.721286	0	0
0.18	-2.87489	1.36139	-1.66185	0.881732	-0.370483	1.0832	-0.2751	0.011693	-0.195556	0.487562	0.0101368	0	0	0.219552	-0.047543	-0.0454552	0.267967	-0.0756849	0	0	-0.41127	0.0166677	0.0384004	0.685927	-0.368413	0.781676	1.07515	0.472848	0	0	0.227263	-0.592059	-0.0194725	1.19168	0.720635	0	0
0.19	-2.86432	1.36325	-1.67853	0.879846	-0.358343	1.08154	-0.281286	0.00620221	-0.194796	0.493824	0.0114938	0	0	0.215791	-0.0463135	-0.0467978	0.282139	-0.0760994	0	0	-0.408298	0.012031	0.0432717	0.68363	-0.36786	0.781265	1.07494	0.473182	0	0	0.225524	-0.592631	-0.0197302	1.19181	0.721395	0	0
0.2	-2.85572	1.36515	-1.69327	0.877865	-0.34601	1.07974	-0.286886	0.000767437	-0.194086	0.501703	0.0128427	0	0	0.210637	-0.0453149	-0.0459157	0.297144	-0.0765639	0	0	-0.404654	0.00790412	0.0484232	0.680899	-0.367405	0.780876	1.07462	0.473975	0	0	0.223673	-0.593025	-0.0198472	1.1918	0.722124	0	0
0.21	-2.84948	1.36683	-1.70558	0.875775	-0.333421	1.07786	-0.29246	-0.0045463	-0.193712	0.510761	0.0135973	0	0	0.202916	-0.0443844	-0.0428425	0.310405	-0.0748149	0	0	-0.400349	0.00442547	0.053722	0.677603	-0.366978	0.78061	1.07412	0.475288	0	0	0.221527	-0.593125	-0.019838	1.19146	0.722409	0	0
0.22	-2.84576	1.36835	-1.71543	0.873532	-0.320516	1.07591	-0.298205	-0.00977498	-0.193302	0.520487	0.0134191	0	0	0.192616	-0.0433624	-0.0389322	0.319821	-0.0685681	0	0	-0.395192	0.00177449	0.0589843	0.673792	-0.366534	0.780845	1.07349	0.476705	0	0	0.218693	-0.593049	-0.0195809	1.19052	0.723173	0	0
0.23	-2.84417	1.36957	-1.72306	0.871124	-0.307255	1.07394	-0.304833	-0.0149803	-0.1925	0.529564	0.0117578	0	0	0.180312	-0.0419777	-0.0361638	0.323372	-0.0600974	0	0	-0.389366	-0.000396175	0.0641472	0.668982	-0.365954	0.780391	1.07275	0.476948	0	0	0.214927	-0.59308	-0.0192607	1.18937	0.72489	0	0
0.24	-2.84078	1.37065	-1.73213	0.868524	-0.293699	1.07202	-0.311179	-0.020904	-0.19142	0.539756	0.00863014	0	0	0.168552	-0.0396196	-0.0372001	0.322003	-0.0553642	0	0	-0.382934	-0.00268324	0.0688527	0.663566	-0.365501	0.780337	1.07217	0.477077	0	0	0.210399	-0.592667	-0.0195123	1.18823	0.725768	0	0
0.25	-2.83283	1.37159	-1.74506	0.865795	-0.279961	1.07033	-0.316496	-0.0278449	-0.18918	0.551878	0.00346127	0	0	0.158414	-0.0361537	-0.040163	0.316028	-0.0603022	0	0	-0.376425	-0.0058785	0.0727188	0.657658	-0.364858	0.780324	1.07158	0.477869	0	0	0.205783	-0.592149	-0.0200315	1.18697	0.725988	0	0
0.26	-2.81704	1.37218	-1.76398	0.862768	-0.266153	1.069	-0.320448	-0.0365611	-0.188462	0.566639	-0.00446685	0	0	0.149922	-0.03092	-0.0420125	0.308668	-0.0747088	0	0	-0.370228	-0.0104371	0.0746468	0.650928	-0.36368	0.778738	1.07086	0.478974	0	0	0.201494	-0.59212	-0.0200835	1.18548	0.726882	0	0
